<svg xmlns="http://www.w3.org/2000/svg" viewBox="0 0 64 64" fill="none" aria-hidden="true">
  <g transform="translate(32 34) rotate(-11)">
    <!-- Back card: Jack of spades (black) -->
    <g transform="translate(-24 -17)">
      <rect
        width="26"
        height="36"
        rx="3"
        fill="#fff"
        stroke="#1a1a1a"
        stroke-width="2.4"
      />
      <text
        x="4.5"
        y="9"
        fill="#1a1a1a"
        font-family="Georgia, 'Times New Roman', serif"
        font-size="7"
        font-weight="700"
      >
        J
      </text>
      <g transform="translate(4.5 10.5) scale(0.22)">
        <path
          fill="#1a1a1a"
          d="M12 2.5C12 2.5 4.5 10 4.5 15.5C4.5 19 7.5 21 12 17.5C16.5 21 19.5 19 19.5 15.5C19.5 10 12 2.5 12 2.5ZM12 17.5L8 24.5H16L12 17.5Z"
        />
      </g>
      <g transform="translate(6.5 14) scale(0.52)">
        <path
          fill="#1a1a1a"
          d="M12 2.5C12 2.5 4.5 10 4.5 15.5C4.5 19 7.5 21 12 17.5C16.5 21 19.5 19 19.5 15.5C19.5 10 12 2.5 12 2.5ZM12 17.5L8 24.5H16L12 17.5Z"
        />
      </g>
    </g>

    <!-- Front card: Ace of hearts (red) -->
    <g transform="translate(-1 -21)">
      <rect
        width="26"
        height="36"
        rx="3"
        fill="#fff"
        stroke="#1a1a1a"
        stroke-width="2.4"
      />
      <text
        x="4.5"
        y="9"
        fill="#c41e3a"
        font-family="Georgia, 'Times New Roman', serif"
        font-size="7"
        font-weight="700"
      >
        A
      </text>
      <g transform="translate(4.5 10.5) scale(0.22)">
        <path
          fill="#c41e3a"
          d="M12 21C12 21 3 13.5 3 9C3 5.5 5.5 3 8.5 3C10.2 3 11.5 4 12 5.5C12.5 4 13.8 3 15.5 3C18.5 3 21 5.5 21 9C21 13.5 12 21 12 21Z"
        />
      </g>
      <g transform="translate(6.5 14) scale(0.52)">
        <path
          fill="#c41e3a"
          d="M12 21C12 21 3 13.5 3 9C3 5.5 5.5 3 8.5 3C10.2 3 11.5 4 12 5.5C12.5 4 13.8 3 15.5 3C18.5 3 21 5.5 21 9C21 13.5 12 21 12 21Z"
        />
      </g>
    </g>
  </g>
</svg>
